:SAMPLES-PER-SECOND 30
:FULLY-SPECIFIED
:DEGREES
192
root  -17.3807 34.6074 -13.0426 -168.918 34.888 -174.448
RightUpLeg  -9.9991 7.37786 -0.834314
RightLeg  -0.910043 18.5077 -1.45485
RightFoot  12.7001 -0.419771 4.2029
RightToes  -39.5639 -0.215009 -0.308529
Spine  -5.19212 -2.14623 0.997844
Spine1  -10.2883 -3.9038 3.13941
HEad  -59.2212 -38.3437 1.63387
LeftShoulder1  -1.94126e-019 -3.10601e-018 -2.51263e-017
LeftArm  -78.6473 -43.4609 17.7886
LeftForeArm  36.6189 -51.6056 -11.3246
LeftHand  -0.797043 -2.73032 11.6051
RightShoulder  -4.96962e-017 0 -2.36833e-017
RightArm  -96.055 26.8119 -26.1089
RightForeArm  38.7036 40.0453 6.8402
RightHand  0.0559074 -6.06829 -12.8641
LeftUpLeg  3.36307 19.6814 9.26577
LeftLeg  5.70985 27.5732 0.93832
LeftFoot  4.39241 -0.0930115 2.42286
LeftToes  -24.6482 1.70063e-006 7.6642e-008
193
root  -17.3548 34.6081 -13.0086 -168.819 34.971 -174.453
RightUpLeg  -10.1369 7.29303 -0.791697
RightLeg  -0.915051 18.6783 -1.46932
RightFoot  12.7035 -0.424211 4.24077
RightToes  -39.8537 -0.215099 -0.309403
Spine  -5.19711 -2.1056 0.996388
Spine1  -10.3069 -3.83795 3.17206
HEad  -61.1081 -37.8579 2.38123
LeftShoulder1  -1.94126e-019 -3.10601e-018 -2.51263e-017
LeftArm  -73.4865 -38.7934 14.091
LeftForeArm  38.8703 -61.1132 -16.8594
LeftHand  -0.820177 -2.89739 11.7044
RightShoulder  -4.96962e-017 0 -2.36833e-017
RightArm  -90.6527 23.0674 -20.1211
RightForeArm  39.8877 55.6915 12.9028
RightHand  0.0951438 -6.52207 -11.982
LeftUpLeg  3.5893 20.1764 9.35526
LeftLeg  4.9983 27.1738 0.600669
LeftFoot  4.64224 -0.0998931 2.50995
LeftToes  -24.7568 1.70063e-006 7.6642e-008
194
root  -17.3227 34.6094 -12.9829 -168.685 34.7341 -174.536
RightUpLeg  -10.2914 7.08323 -0.786475
RightLeg  -0.913845 18.6374 -1.46585
RightFoot  12.6362 -0.418308 4.20822
RightToes  -39.8817 -0.215224 -0.310227
Spine  -5.2742 -2.19209 1.02477
Spine1  -10.4809 -4.02691 3.21884
HEad  -62.5909 -36.8932 2.32161
LeftShoulder1  -1.94126e-019 -3.10601e-018 -2.51263e-017
LeftArm  -71.0383 -34.4783 12.0837
LeftForeArm  45.9892 -68.9653 -24.7864
LeftHand  -0.879205 -3.27728 12.0011
RightShoulder  -4.96962e-017 0 -2.36833e-017
RightArm  -88.0516 20.4454 -16.069
RightForeArm  46.2541 67.5314 22.2624
RightHand  0.119119 -6.86601 -11.2373
LeftUpLeg  3.55837 20.5055 9.39547
LeftLeg  4.5256 26.6276 0.377614
LeftFoot  4.8918 -0.105735 2.57847
LeftToes  -25.0868 1.70063e-006 7.6642e-008
195
root  -17.2868 34.6076 -12.9798 -168.558 34.2349 -174.621
RightUpLeg  -10.3742 6.70097 -0.771096
RightLeg  -0.903952 18.5376 -1.45516
RightFoot  12.521 -0.408065 4.15048
RightToes  -39.7945 -0.215273 -0.310922
Spine  -5.40288 -2.26387 1.07271
Spine1  -10.7613 -4.18025 3.28545
HEad  -63.7617 -36.1509 1.69098
LeftShoulder1  -1.94126e-019 -3.10601e-018 -2.51263e-017
LeftArm  -71.4005 -32.1701 11.3102
LeftForeArm  56.0168 -74.1175 -34.4832
LeftHand  -0.989769 -3.71422 12.8504
RightShoulder  -4.96962e-017 0 -2.36833e-017
RightArm  -86.8675 19.5423 -14.7949
RightForeArm  55.1524 73.5945 32.5037
RightHand  0.161947 -7.12465 -12.378
LeftUpLeg  3.54479 20.6279 9.44704
LeftLeg  3.957 26.0283 0.120241
LeftFoot  5.13622 -0.110975 2.63546
LeftToes  -25.4274 1.70063e-006 7.6642e-008
196
root  -17.2422 34.6012 -13.0084 -168.405 33.5293 -174.586
RightUpLeg  -10.4053 6.11199 -0.637559
RightLeg  -0.754901 18.4583 -1.40168
RightFoot  12.2759 -0.390113 4.05879
RightToes  -39.9274 -0.215134 -0.311407
Spine  -5.60449 -2.25836 1.06318
Spine1  -11.1927 -4.16159 3.26505
HEad  -63.5694 -35.4961 0.505927
LeftShoulder1  -1.94126e-019 -3.10601e-018 -2.51263e-017
LeftArm  -74.7555 -33.132 11.2616
LeftForeArm  62.8191 -76.797 -44.1371
LeftHand  -1.0707 -3.94884 13.538
RightShoulder  -4.96962e-017 0 -2.36833e-017
RightArm  -87.1533 21.4908 -16.1007
RightForeArm  49.273 71.4184 28.3376
RightHand  0.308243 -7.75258 -16.0643
LeftUpLeg  3.60651 20.3249 9.58489
LeftLeg  3.30508 25.6381 -0.163438
LeftFoot  5.32201 -0.117293 2.68488
LeftToes  -25.571 1.70063e-006 7.6642e-008
197
root  -17.1846 34.5902 -13.0718 -168.388 32.6261 -174.484
RightUpLeg  -10.2704 5.2889 -0.411071
RightLeg  -0.419497 18.4783 -1.29621
RightFoot  11.8963 -0.366498 3.9485
RightToes  -40.0817 -0.214697 -0.311605
Spine  -5.71567 -2.26032 0.842797
Spine1  -11.4457 -4.16304 2.91364
HEad  -62.3867 -36.0383 0.180649
LeftShoulder1  -1.94126e-019 -3.10601e-018 -2.51263e-017
LeftArm  -80.7843 -37.3213 12.284
LeftForeArm  64.684 -77.9522 -52.0007
LeftHand  -0.956271 -3.51403 12.6936
RightShoulder  -4.96962e-017 0 -2.36833e-017
RightArm  -90.1465 26.3344 -19.7927
RightForeArm  40.7576 58.2121 14.3559
RightHand  0.301132 -7.044 -21.7158
LeftUpLeg  3.86685 19.987 9.88347
LeftLeg  2.62686 25.1033 -0.447953
LeftFoot  5.53791 -0.124397 2.7308
LeftToes  -25.9304 1.70063e-006 7.6642e-008
198
root  -17.1195 34.5924 -13.1394 -168.475 31.6856 -174.345
RightUpLeg  -9.84134 4.7343 -0.143776
RightLeg  -0.414522 18.1505 -1.27257
RightFoot  11.6888 -0.346494 3.81779
RightToes  -39.7418 -0.21385 -0.311435
Spine  -5.73155 -2.22953 0.549974
Spine1  -11.5032 -4.13911 2.32153
HEad  -60.3754 -37.7474 -0.0404371
LeftShoulder1  -1.94126e-019 -3.10601e-018 -2.51263e-017
LeftArm  -87.5026 -42.8981 14.9802
LeftForeArm  64.5889 -78.3296 -56.1766
LeftHand  -0.813006 -2.70822 11.8625
RightShoulder  -4.96962e-017 0 -2.36833e-017
RightArm  -98.4142 31.5736 -26.5112
RightForeArm  43.7742 35.827 5.45081
RightHand  0.174415 -6.3277 -22.5065
LeftUpLeg  4.18029 19.8271 10.2994
LeftLeg  2.11182 24.3619 -0.648035
LeftFoot  5.69185 -0.12716 2.71913
LeftToes  -25.9819 1.70063e-006 7.6642e-008
199
root  -17.0392 34.6277 -13.1642 -168.681 30.6764 -174.241
RightUpLeg  -9.12755 4.53468 0.131299
RightLeg  -0.878713 17.3986 -1.36146
RightFoot  11.8171 -0.335065 3.67545
RightToes  -39.2452 -0.212482 -0.310819
Spine  -5.62352 -1.98924 0.437059
Spine1  -11.2767 -3.60475 1.66037
HEad  -58.9278 -39.9638 0.161572
LeftShoulder1  -1.94126e-019 -3.10601e-018 -2.51263e-017
LeftArm  -92.8181 -47.8921 18.5317
LeftForeArm  66.9785 -78.5696 -57.576
LeftHand  -0.809039 -2.55872 12.0176
RightShoulder  -4.96962e-017 0 -2.36833e-017
RightArm  -111.592 34.0562 -33.858
RightForeArm  49.3861 15.998 1.22687
RightHand  0.156341 -6.42827 -18.8795
LeftUpLeg  4.30209 19.5015 10.7437
LeftLeg  2.03419 23.6743 -0.662005
LeftFoot  5.78974 -0.125326 2.66673
LeftToes  -26.0297 1.70063e-006 7.6642e-008
